<?xml version="1.0" encoding="UTF-8"?>
<!DOCTYPE svg PUBLIC "-//W3C//DTD SVG 1.1//EN" "http://www.w3.org/Graphics/SVG/1.1/DTD/svg11.dtd">
<svg xmlns="http://www.w3.org/2000/svg" version="1.1" width="370px" height="75px" style="shape-rendering:geometricPrecision; text-rendering:geometricPrecision; image-rendering:optimizeQuality; fill-rule:evenodd; clip-rule:evenodd" xmlns:xlink="http://www.w3.org/1999/xlink">
<g><path style="opacity:1" fill="#040304" d="M -0.5,-0.5 C 122.833,-0.5 246.167,-0.5 369.5,-0.5C 369.5,24.5 369.5,49.5 369.5,74.5C 246.167,74.5 122.833,74.5 -0.5,74.5C -0.5,49.5 -0.5,24.5 -0.5,-0.5 Z"/></g>
<g><path style="opacity:0.914" fill="#7b7b7b" d="M 40.5,16.5 C 40.5858,15.5041 40.2524,14.6708 39.5,14C 35.1794,13.501 30.8461,13.3343 26.5,13.5C 26.6107,12.8826 26.944,12.3826 27.5,12C 31.8333,11.3333 36.1667,11.3333 40.5,12C 41.8009,13.6155 41.8009,15.1155 40.5,16.5 Z"/></g>
<g><path style="opacity:0.807" fill="#fff8fd" d="M 26.5,13.5 C 30.8461,13.3343 35.1794,13.501 39.5,14C 40.2524,14.6708 40.5858,15.5041 40.5,16.5C 40.5,17.1667 40.5,17.8333 40.5,18.5C 39.7354,18.9234 38.9021,19.2568 38,19.5C 36.2173,18.0471 34.2173,17.0471 32,16.5C 29.7253,16.2776 28.5587,17.2776 28.5,19.5C 28.5,20.1667 28.5,20.8333 28.5,21.5C 26.6565,23.2789 25.9898,25.6122 26.5,28.5C 29.9387,28.2529 33.272,28.5863 36.5,29.5C 36.1667,30.8333 35.8333,32.1667 35.5,33.5C 32.2869,33.19 29.2869,33.5233 26.5,34.5C 24.1394,32.8061 22.1394,30.8061 20.5,28.5C 21.7563,26.059 21.7563,23.7257 20.5,21.5C 21.1098,20.609 21.4431,19.609 21.5,18.5C 22.9311,17.9181 24.2644,17.0848 25.5,16C 26.2524,15.3292 26.5858,14.4959 26.5,13.5 Z"/></g>
<g><path style="opacity:0.918" fill="#666666" d="M 26.5,13.5 C 26.5858,14.4959 26.2524,15.3292 25.5,16C 24.2644,17.0848 22.9311,17.9181 21.5,18.5C 21.369,17.7611 21.5357,17.0944 22,16.5C 23.3997,15.252 24.8997,14.252 26.5,13.5 Z"/></g>
<g><path style="opacity:0.963" fill="#767676" d="M 40.5,18.5 C 40.516,20.4841 39.516,21.4841 37.5,21.5C 35.6711,20.5354 33.8377,19.5354 32,18.5C 30.7441,18.6483 29.5774,18.9816 28.5,19.5C 28.5587,17.2776 29.7253,16.2776 32,16.5C 34.2173,17.0471 36.2173,18.0471 38,19.5C 38.9021,19.2568 39.7354,18.9234 40.5,18.5 Z"/></g>
<g><path style="opacity:0.898" fill="#611751" d="M 48.5,22.5 C 47.5178,21.8592 46.5178,21.1925 45.5,20.5C 44.4822,21.1925 43.4822,21.8592 42.5,22.5C 43.109,19.0344 44.9423,18.0344 48,19.5C 48.4828,20.448 48.6495,21.448 48.5,22.5 Z"/></g>
<g><path style="opacity:0.982" fill="#333032" d="M 350.5,26.5 C 349.596,25.791 349.263,24.791 349.5,23.5C 346.5,23.5 343.5,23.5 340.5,23.5C 340.5,24.8333 340.5,26.1667 340.5,27.5C 338.333,23.0068 339.833,21.0068 345,21.5C 349.258,20.5927 351.091,22.2594 350.5,26.5 Z"/></g>
<g><path style="opacity:0.978" fill="#5f0d4d" d="M 331.5,29.5 C 327.833,28.1667 324.167,28.1667 320.5,29.5C 320.5,27.1667 320.5,24.8333 320.5,22.5C 323.85,22.335 327.183,22.5017 330.5,23C 331.423,25.0408 331.756,27.2075 331.5,29.5 Z"/></g>
<g><path style="opacity:0.937" fill="#ff63db" d="M 48.5,22.5 C 48.5,23.1667 48.5,23.8333 48.5,24.5C 47.2089,25.5417 47.2089,26.7083 48.5,28C 51.4816,28.498 54.4816,28.6646 57.5,28.5C 57.5,29.5 57.5,30.5 57.5,31.5C 57.5,32.1667 57.5,32.8333 57.5,33.5C 54.0613,33.2529 50.728,33.5863 47.5,34.5C 45.1667,33.1667 42.8333,31.8333 40.5,30.5C 40.6941,27.6703 41.3608,25.0037 42.5,22.5C 43.4822,21.8592 44.4822,21.1925 45.5,20.5C 46.5178,21.1925 47.5178,21.8592 48.5,22.5 Z"/></g>
<g><path style="opacity:0.97" fill="#696969" d="M 280.5,28.5 C 276.167,28.5 271.833,28.5 267.5,28.5C 267.5,27.1667 267.5,25.8333 267.5,24.5C 271.833,24.5 276.167,24.5 280.5,24.5C 280.5,25.8333 280.5,27.1667 280.5,28.5 Z"/></g>
<g><path style="opacity:0.978" fill="#6f696d" d="M 297.5,23.5 C 300.329,23.3249 301.996,24.6582 302.5,27.5C 306.726,24.6103 311.392,23.277 316.5,23.5C 316.5,25.1667 316.5,26.8333 316.5,28.5C 311.114,28.2346 306.447,29.9013 302.5,33.5C 302.223,31.2719 301.223,29.6053 299.5,28.5C 299.167,28.5 298.833,28.5 298.5,28.5C 298.167,28.5 297.833,28.5 297.5,28.5C 296.929,26.64 296.929,24.9733 297.5,23.5 Z"/></g>
<g><path style="opacity:0.963" fill="#747073" d="M 350.5,26.5 C 350.5,27.1667 350.5,27.8333 350.5,28.5C 347.167,28.5 343.833,28.5 340.5,28.5C 340.5,28.1667 340.5,27.8333 340.5,27.5C 340.5,26.1667 340.5,24.8333 340.5,23.5C 343.5,23.5 346.5,23.5 349.5,23.5C 349.263,24.791 349.596,25.791 350.5,26.5 Z"/></g>
<g><path style="opacity:0.953" fill="#655261" d="M 20.5,21.5 C 21.7563,23.7257 21.7563,26.059 20.5,28.5C 19.3951,29.6005 18.0618,30.2671 16.5,30.5C 16.6615,28.1756 17.8282,26.5089 20,25.5C 20.49,24.2068 20.6567,22.8734 20.5,21.5 Z"/></g>
<g><path style="opacity:0.953" fill="#666466" d="M 28.5,21.5 C 28.4606,22.5832 28.1272,23.5832 27.5,24.5C 30.1071,25.3184 32.7737,25.8184 35.5,26C 36.3366,27.0113 36.67,28.1779 36.5,29.5C 33.272,28.5863 29.9387,28.2529 26.5,28.5C 25.9898,25.6122 26.6565,23.2789 28.5,21.5 Z"/></g>
<g><path style="opacity:0.951" fill="#622053" d="M 48.5,24.5 C 51.3373,26.4023 54.6707,27.069 58.5,26.5C 58.7845,28.4147 58.4511,30.0813 57.5,31.5C 57.5,30.5 57.5,29.5 57.5,28.5C 54.4816,28.6646 51.4816,28.498 48.5,28C 47.2089,26.7083 47.2089,25.5417 48.5,24.5 Z"/></g>
<g><path style="opacity:0.969" fill="#6c1358" d="M 297.5,23.5 C 296.929,24.9733 296.929,26.64 297.5,28.5C 295.379,28.3253 293.379,28.6586 291.5,29.5C 291.5,27.5 291.5,25.5 291.5,23.5C 293.5,23.5 295.5,23.5 297.5,23.5 Z"/></g>
<g><path style="opacity:0.953" fill="#501a44" d="M 96.5,28.5 C 100.634,27.5151 104.968,27.1818 109.5,27.5C 109.232,29.099 109.566,30.4324 110.5,31.5C 110.5,32.1667 110.5,32.8333 110.5,33.5C 108.787,32.3646 108.12,30.698 108.5,28.5C 104.5,28.5 100.5,28.5 96.5,28.5 Z"/></g>
<g><path style="opacity:0.945" fill="#742661" d="M 182.5,28.5 C 181.833,28.5 181.167,28.5 180.5,28.5C 178.833,28.5 177.167,28.5 175.5,28.5C 170.927,27.7688 166.927,28.7688 163.5,31.5C 163.511,29.9826 164.177,28.8159 165.5,28C 171.349,27.1816 177.015,27.3483 182.5,28.5 Z"/></g>
<g><path style="opacity:0.959" fill="#8a8a8a" d="M 238.5,28.5 C 234.5,28.5 230.5,28.5 226.5,28.5C 228.048,27.2057 230.048,26.5391 232.5,26.5C 234.952,26.5391 236.952,27.2057 238.5,28.5 Z"/></g>
<g><path style="opacity:0.882" fill="#767676" d="M 255.5,28.5 C 253.708,28.366 252.042,28.6993 250.5,29.5C 250.384,26.0897 252.05,24.7564 255.5,25.5C 255.5,26.5 255.5,27.5 255.5,28.5 Z"/></g>
<g><path style="opacity:0.898" fill="#ff38cf" d="M 111.5,33.5 C 111.167,33.5 110.833,33.5 110.5,33.5C 110.5,32.8333 110.5,32.1667 110.5,31.5C 113.938,28.6067 117.938,27.7734 122.5,29C 123.795,31.8007 123.795,34.6341 122.5,37.5C 118.566,39.2424 116.899,37.909 117.5,33.5C 115.5,33.5 113.5,33.5 111.5,33.5 Z"/></g>
<g><path style="opacity:0.912" fill="#ff7ee2" d="M 146.5,29.5 C 146.5,40.5 146.5,51.5 146.5,62.5C 144.976,61.8262 143.642,60.8262 142.5,59.5C 141.817,59.8627 141.15,60.1961 140.5,60.5C 140.5,59.5 140.5,58.5 140.5,57.5C 144.169,55.562 145.336,52.562 144,48.5C 141.606,47.8641 139.106,47.8641 136.5,48.5C 136.5,47.5 136.5,46.5 136.5,45.5C 138.781,43.5721 141.447,42.5721 144.5,42.5C 144.5,39.5 144.5,36.5 144.5,33.5C 141.5,32.8333 138.5,32.1667 135.5,31.5C 134.833,31.5 134.5,31.1667 134.5,30.5C 134.611,29.8826 134.944,29.3826 135.5,29C 139.358,28.1901 143.024,28.3567 146.5,29.5 Z"/></g>
<g><path style="opacity:0.922" fill="#5e2551" d="M 211.5,28.5 C 210.167,28.5 208.833,28.5 207.5,28.5C 204.162,28.0653 201.162,28.7319 198.5,30.5C 197.5,30.5 196.5,30.5 195.5,30.5C 195.785,32.288 195.452,33.9547 194.5,35.5C 193.311,37.3634 191.978,39.0301 190.5,40.5C 190.632,37.6072 191.799,35.2739 194,33.5C 194.494,31.8659 194.66,30.1992 194.5,28.5C 198.116,27.7302 201.783,27.0635 205.5,26.5C 207.952,26.5391 209.952,27.2057 211.5,28.5 Z"/></g>
<g><path style="opacity:0.87" fill="#fffdfe" d="M 226.5,28.5 C 230.5,28.5 234.5,28.5 238.5,28.5C 239.338,28.8417 239.672,29.5084 239.5,30.5C 237.489,31.4166 236.489,33.0832 236.5,35.5C 236.078,38.3077 237.078,40.3077 239.5,41.5C 239.5,43.5 239.5,45.5 239.5,47.5C 237.5,47.5 235.5,47.5 233.5,47.5C 232.255,44.6516 231.255,41.6516 230.5,38.5C 228.519,37.8946 228.185,36.8946 229.5,35.5C 227.146,33.7539 226.146,31.4206 226.5,28.5 Z"/></g>
<g><path style="opacity:0.849" fill="#f9f7f9" d="M 255.5,28.5 C 257.984,30.5452 258.984,33.2118 258.5,36.5C 258.157,38.4832 258.824,39.8166 260.5,40.5C 261.833,42.1667 261.833,43.8333 260.5,45.5C 258.784,45.6287 257.117,45.962 255.5,46.5C 254.194,45.5326 253.527,44.1993 253.5,42.5C 253.762,41.0222 253.429,39.6888 252.5,38.5C 251.412,41.0145 250.078,43.3478 248.5,45.5C 247.5,45.5 246.5,45.5 245.5,45.5C 245.5,44.1667 245.5,42.8333 245.5,41.5C 246.458,41.0472 247.292,40.3805 248,39.5C 248.544,36.3754 249.377,33.3754 250.5,30.5C 250.5,30.1667 250.5,29.8333 250.5,29.5C 252.042,28.6993 253.708,28.366 255.5,28.5 Z"/></g>
<g><path style="opacity:0.85" fill="#fffefe" d="M 267.5,28.5 C 271.833,28.5 276.167,28.5 280.5,28.5C 280.5,29.1667 280.5,29.8333 280.5,30.5C 277.27,31.7281 275.604,34.0614 275.5,37.5C 273.273,38.4006 272.273,40.0672 272.5,42.5C 270.833,42.5 269.167,42.5 267.5,42.5C 267.5,42.1667 267.5,41.8333 267.5,41.5C 269.922,40.3077 270.922,38.3077 270.5,35.5C 270.511,33.0832 269.511,31.4166 267.5,30.5C 267.5,29.8333 267.5,29.1667 267.5,28.5 Z"/></g>
<g><path style="opacity:0.842" fill="#fffefe" d="M 316.5,28.5 C 316.5,31.8333 316.5,35.1667 316.5,38.5C 313.889,37.0661 311.389,35.3994 309,33.5C 306.683,34.9852 304.516,36.6519 302.5,38.5C 301.167,36.8333 301.167,35.1667 302.5,33.5C 306.447,29.9013 311.114,28.2346 316.5,28.5 Z"/></g>
<g><path style="opacity:0.853" fill="#fff7fd" d="M 340.5,28.5 C 343.833,28.5 347.167,28.5 350.5,28.5C 350.5,29.5 350.5,30.5 350.5,31.5C 348.294,33.4547 346.628,35.788 345.5,38.5C 345.5,34.8254 343.833,32.1587 340.5,30.5C 340.5,29.8333 340.5,29.1667 340.5,28.5 Z"/></g>
<g><path style="opacity:0.875" fill="#641751" d="M 72.5,28.5 C 72.3893,29.1174 72.056,29.6174 71.5,30C 69.5273,30.4955 67.5273,30.6621 65.5,30.5C 67.2789,28.6565 69.6122,27.9898 72.5,28.5 Z"/></g>
<g><path style="opacity:0.89" fill="#765f71" d="M 211.5,28.5 C 215.746,27.7606 218.413,29.4273 219.5,33.5C 218.833,33.1667 218.167,32.8333 217.5,32.5C 215.5,31.1667 213.5,29.8333 211.5,28.5 Z"/></g>
<g><path style="opacity:0.849" fill="#ff48d2" d="M 72.5,28.5 C 75.1667,28.5 77.8333,28.5 80.5,28.5C 80.5,30.1667 80.5,31.8333 80.5,33.5C 77.999,32.1736 75.3323,31.6736 72.5,32C 70.8588,33.129 69.8588,34.629 69.5,36.5C 68.5449,38.7099 67.0449,39.0432 65,37.5C 64.2967,35.0709 64.4634,32.7375 65.5,30.5C 67.5273,30.6621 69.5273,30.4955 71.5,30C 72.056,29.6174 72.3893,29.1174 72.5,28.5 Z"/></g>
<g><path style="opacity:0.918" fill="#ff64dc" d="M 96.5,28.5 C 100.5,28.5 104.5,28.5 108.5,28.5C 108.12,30.698 108.787,32.3646 110.5,33.5C 110.833,33.5 111.167,33.5 111.5,33.5C 110.5,34.8333 109.5,36.1667 108.5,37.5C 106.194,37.0074 103.861,36.6741 101.5,36.5C 99.779,33.7978 98.1124,31.1311 96.5,28.5 Z"/></g>
<g><path style="opacity:0.854" fill="#ff1ecc" d="M 175.5,28.5 C 175.5,29.5 175.5,30.5 175.5,31.5C 172.5,32.1667 169.5,32.8333 166.5,33.5C 166.232,35.099 166.566,36.4324 167.5,37.5C 168.167,38.5 168.833,39.5 169.5,40.5C 167.273,41.4006 166.273,43.0672 166.5,45.5C 164.629,45.1412 163.129,44.1412 162,42.5C 161.013,38.5252 161.513,34.8585 163.5,31.5C 166.927,28.7688 170.927,27.7688 175.5,28.5 Z"/></g>
<g><path style="opacity:0.918" fill="#ffc7f2" d="M 207.5,28.5 C 208.833,28.5 210.167,28.5 211.5,28.5C 213.5,29.8333 215.5,31.1667 217.5,32.5C 216.507,41.3178 216.173,50.3178 216.5,59.5C 215.738,61.2624 214.404,62.2624 212.5,62.5C 212.5,60.5 212.5,58.5 212.5,56.5C 215.188,49.2358 215.022,41.9024 212,34.5C 210.871,32.8588 209.371,31.8588 207.5,31.5C 207.5,30.5 207.5,29.5 207.5,28.5 Z"/></g>
<g><path style="opacity:1" fill="#000000" d="M 207.5,31.5 C 209.371,31.8588 210.871,32.8588 212,34.5C 215.022,41.9024 215.188,49.2358 212.5,56.5C 210.455,58.9844 207.788,59.9844 204.5,59.5C 202.228,58.073 200.061,56.4063 198,54.5C 196.18,46.3082 197.68,38.9749 202.5,32.5C 204.045,31.5481 205.712,31.2148 207.5,31.5 Z"/></g>
<g><path style="opacity:0.927" fill="#6b6b6b" d="M 280.5,30.5 C 280.759,34.2368 279.093,36.5702 275.5,37.5C 275.604,34.0614 277.27,31.7281 280.5,30.5 Z"/></g>
<g><path style="opacity:0.69" fill="#ffbbf0" d="M 20.5,28.5 C 22.1394,30.8061 24.1394,32.8061 26.5,34.5C 26.5,34.8333 26.5,35.1667 26.5,35.5C 26.5,39.1667 26.5,42.8333 26.5,46.5C 25.1805,45.0582 23.5138,44.3915 21.5,44.5C 21.665,41.1501 21.4983,37.8168 21,34.5C 19.3775,33.9011 17.8775,33.2344 16.5,32.5C 16.5,31.8333 16.5,31.1667 16.5,30.5C 18.0618,30.2671 19.3951,29.6005 20.5,28.5 Z"/></g>
<g><path style="opacity:0.843" fill="#ff98e8" d="M 175.5,28.5 C 177.167,28.5 178.833,28.5 180.5,28.5C 180.727,30.9328 179.727,32.5994 177.5,33.5C 176.833,33.1667 176.167,32.8333 175.5,32.5C 175.5,32.1667 175.5,31.8333 175.5,31.5C 175.5,30.5 175.5,29.5 175.5,28.5 Z"/></g>
<g><path style="opacity:0.945" fill="#6b1456" d="M 321.5,31.5 C 323.256,32.5521 323.923,34.2188 323.5,36.5C 321.744,35.4479 321.077,33.7812 321.5,31.5 Z"/></g>
<g><path style="opacity:1" fill="#ffc9f3" d="M 84.5,30.5 C 86.2132,31.6354 86.8799,33.302 86.5,35.5C 86.127,44.5233 85.4603,53.5233 84.5,62.5C 83.209,62.7373 82.209,62.404 81.5,61.5C 80.7081,59.2552 79.3747,58.9219 77.5,60.5C 77.5,59.5 77.5,58.5 77.5,57.5C 81.0076,55.5749 82.341,52.5749 81.5,48.5C 84.1432,42.9801 85.1432,36.9801 84.5,30.5 Z"/></g>
<g><path style="opacity:1" fill="#ff33ce" d="M 134.5,30.5 C 134.5,31.1667 134.833,31.5 135.5,31.5C 133.15,33.2133 132.15,35.5466 132.5,38.5C 127.787,38.5324 126.287,36.1991 128,31.5C 130.041,30.5769 132.208,30.2436 134.5,30.5 Z"/></g>
<g><path style="opacity:0.902" fill="#640f51" d="M 175.5,31.5 C 175.5,31.8333 175.5,32.1667 175.5,32.5C 172.996,33.6392 170.33,34.3059 167.5,34.5C 167.5,35.5 167.5,36.5 167.5,37.5C 166.566,36.4324 166.232,35.099 166.5,33.5C 169.5,32.8333 172.5,32.1667 175.5,31.5 Z"/></g>
<g><path style="opacity:1" fill="#ff54d8" d="M 331.5,29.5 C 330.781,31.7638 330.448,34.0971 330.5,36.5C 328.139,36.6741 325.806,37.0074 323.5,37.5C 323.5,37.1667 323.5,36.8333 323.5,36.5C 323.923,34.2188 323.256,32.5521 321.5,31.5C 321.167,30.8333 320.833,30.1667 320.5,29.5C 324.167,28.1667 327.833,28.1667 331.5,29.5 Z"/></g>
<g><path style="opacity:0.945" fill="#767275" d="M 35.5,33.5 C 33.0122,35.3878 30.0122,36.0545 26.5,35.5C 26.5,35.1667 26.5,34.8333 26.5,34.5C 29.2869,33.5233 32.2869,33.19 35.5,33.5 Z"/></g>
<g><path style="opacity:0.941" fill="#682e5b" d="M 57.5,33.5 C 54.5,34.8333 51.5,36.1667 48.5,37.5C 47.596,36.791 47.2627,35.791 47.5,34.5C 50.728,33.5863 54.0613,33.2529 57.5,33.5 Z"/></g>
<g><path style="opacity:0.663" fill="#ffe4f9" d="M 180.5,28.5 C 181.167,28.5 181.833,28.5 182.5,28.5C 183.806,31.6868 183.806,35.0202 182.5,38.5C 180.479,37.1455 178.812,35.4788 177.5,33.5C 179.727,32.5994 180.727,30.9328 180.5,28.5 Z"/></g>
<g><path style="opacity:0.969" fill="#510641" d="M 291.5,30.5 C 295.602,31.6087 297.269,34.2754 296.5,38.5C 292.398,37.3913 290.731,34.7246 291.5,30.5 Z"/></g>
<g><path style="opacity:1" fill="#ffb4ee" d="M 299.5,28.5 C 301.223,29.6053 302.223,31.2719 302.5,33.5C 301.167,35.1667 301.167,36.8333 302.5,38.5C 301.167,45.5 301.167,52.5 302.5,59.5C 302.5,60.5 302.5,61.5 302.5,62.5C 302.167,62.5 301.833,62.5 301.5,62.5C 301.167,62.5 300.833,62.5 300.5,62.5C 299.967,51.1739 299.634,39.8405 299.5,28.5 Z"/></g>
<g><path style="opacity:0.91" fill="#ffa7eb" d="M 40.5,30.5 C 42.8333,31.8333 45.1667,33.1667 47.5,34.5C 47.2627,35.791 47.596,36.791 48.5,37.5C 48.5,37.8333 48.5,38.1667 48.5,38.5C 46.5,38.5 44.5,38.5 42.5,38.5C 42.5,36.8333 42.5,35.1667 42.5,33.5C 41.1667,33.5 39.8333,33.5 38.5,33.5C 38.2852,31.8212 38.9519,30.8212 40.5,30.5 Z"/></g>
<g><path style="opacity:0.699" fill="#ff4dd7" d="M 146.5,29.5 C 148.606,32.1937 150.606,35.0271 152.5,38C 152.71,44.4493 152.376,50.9493 151.5,57.5C 152.5,58.8333 153.5,60.1667 154.5,61.5C 151.914,62.48 149.247,62.8134 146.5,62.5C 146.5,51.5 146.5,40.5 146.5,29.5 Z"/></g>
<g><path style="opacity:0.978" fill="#3d1d35" d="M 80.5,33.5 C 81.4767,36.2869 81.81,39.2869 81.5,42.5C 80.1667,42.5 78.8333,42.5 77.5,42.5C 77.8212,40.9519 78.8212,40.2852 80.5,40.5C 80.5,38.8333 80.5,37.1667 80.5,35.5C 78.3254,35.3178 76.3254,34.6511 74.5,33.5C 72.5775,34.0924 70.9108,35.0924 69.5,36.5C 69.8588,34.629 70.8588,33.129 72.5,32C 75.3323,31.6736 77.999,32.1736 80.5,33.5 Z"/></g>
<g><path style="opacity:0.969" fill="#585758" d="M 340.5,30.5 C 343.833,32.1587 345.5,34.8254 345.5,38.5C 345.5,39.1667 345.5,39.8333 345.5,40.5C 341.207,38.5262 339.54,35.1929 340.5,30.5 Z"/></g>
<g><path style="opacity:0.925" fill="#616161" d="M 250.5,30.5 C 249.377,33.3754 248.544,36.3754 248,39.5C 247.292,40.3805 246.458,41.0472 245.5,41.5C 247.087,38.0813 247.753,34.4146 247.5,30.5C 248.5,30.5 249.5,30.5 250.5,30.5 Z"/></g>
<g><path style="opacity:0.957" fill="#646164" d="M 267.5,30.5 C 269.511,31.4166 270.511,33.0832 270.5,35.5C 270.922,38.3077 269.922,40.3077 267.5,41.5C 267.178,39.2776 267.845,37.4443 269.5,36C 267.845,34.5557 267.178,32.7224 267.5,30.5 Z"/></g>
<g><path style="opacity:0.945" fill="#736f72" d="M 316.5,38.5 C 316.5,39.8333 316.5,41.1667 316.5,42.5C 314.176,42.3385 312.509,41.1718 311.5,39C 310.167,38.3333 308.833,38.3333 307.5,39C 303.145,43.517 301.478,49.017 302.5,55.5C 303.833,55.5 305.167,55.5 306.5,55.5C 306.5,56.8333 306.5,58.1667 306.5,59.5C 305.167,59.5 303.833,59.5 302.5,59.5C 301.167,52.5 301.167,45.5 302.5,38.5C 304.516,36.6519 306.683,34.9852 309,33.5C 311.389,35.3994 313.889,37.0661 316.5,38.5 Z"/></g>
<g><path style="opacity:0.933" fill="#636363" d="M 239.5,30.5 C 239.523,32.5996 238.856,34.4329 237.5,36C 238.856,37.5671 239.523,39.4004 239.5,41.5C 237.078,40.3077 236.078,38.3077 236.5,35.5C 236.489,33.0832 237.489,31.4166 239.5,30.5 Z"/></g>
<g><path style="opacity:0.904" fill="#ff91e6" d="M 101.5,36.5 C 103.861,36.6741 106.194,37.0074 108.5,37.5C 108.5,39.1667 108.5,40.8333 108.5,42.5C 105.833,41.8333 103.167,41.1667 100.5,40.5C 100.232,38.901 100.566,37.5676 101.5,36.5 Z"/></g>
<g><path style="opacity:0.898" fill="#787678" d="M 258.5,36.5 C 260.176,37.1834 260.843,38.5168 260.5,40.5C 258.824,39.8166 258.157,38.4832 258.5,36.5 Z"/></g>
<g><path style="opacity:0.68" fill="#f198dd" d="M 72.5,28.5 C 76.0187,27.1923 79.6853,27.1923 83.5,28.5C 83.8627,29.1835 84.1961,29.8501 84.5,30.5C 85.1432,36.9801 84.1432,42.9801 81.5,48.5C 79.2436,47.5615 76.9103,47.5615 74.5,48.5C 74.5,47.5 74.5,46.5 74.5,45.5C 75.4916,45.6716 76.1583,45.3382 76.5,44.5C 76.8333,43.8333 77.1667,43.1667 77.5,42.5C 78.8333,42.5 80.1667,42.5 81.5,42.5C 81.81,39.2869 81.4767,36.2869 80.5,33.5C 80.5,31.8333 80.5,30.1667 80.5,28.5C 77.8333,28.5 75.1667,28.5 72.5,28.5 Z"/></g>
<g><path style="opacity:0.988" fill="#ff2bcf" d="M 198.5,30.5 C 196.613,39.9758 195.947,49.6424 196.5,59.5C 195.206,58.7101 194.039,57.7101 193,56.5C 191.097,53.8294 190.264,50.8294 190.5,47.5C 190.5,45.1667 190.5,42.8333 190.5,40.5C 191.978,39.0301 193.311,37.3634 194.5,35.5C 195.452,33.9547 195.785,32.288 195.5,30.5C 196.5,30.5 197.5,30.5 198.5,30.5 Z"/></g>
<g><path style="opacity:0.864" fill="#ff55d9" d="M 207.5,28.5 C 207.5,29.5 207.5,30.5 207.5,31.5C 205.712,31.2148 204.045,31.5481 202.5,32.5C 197.68,38.9749 196.18,46.3082 198,54.5C 200.061,56.4063 202.228,58.073 204.5,59.5C 204.5,60.5 204.5,61.5 204.5,62.5C 201.058,63.1717 198.391,62.1717 196.5,59.5C 195.947,49.6424 196.613,39.9758 198.5,30.5C 201.162,28.7319 204.162,28.0653 207.5,28.5 Z"/></g>
<g><path style="opacity:0.949" fill="#666666" d="M 275.5,37.5 C 275.88,39.698 275.213,41.3646 273.5,42.5C 273.167,42.5 272.833,42.5 272.5,42.5C 272.273,40.0672 273.273,38.4006 275.5,37.5 Z"/></g>
<g><path style="opacity:1" fill="#ffb5ee" d="M 330.5,36.5 C 330.366,38.2915 330.699,39.9582 331.5,41.5C 328.794,41.5751 326.127,41.9084 323.5,42.5C 323.5,40.8333 323.5,39.1667 323.5,37.5C 325.806,37.0074 328.139,36.6741 330.5,36.5 Z"/></g>
<g><path style="opacity:0.996" fill="#341e2f" d="M 16.5,32.5 C 17.8775,33.2344 19.3775,33.9011 21,34.5C 21.4983,37.8168 21.665,41.1501 21.5,44.5C 21.5,48.1667 21.5,51.8333 21.5,55.5C 21.5,55.8333 21.5,56.1667 21.5,56.5C 19.2719,56.7769 17.6053,57.7769 16.5,59.5C 16.5,59.8333 16.5,60.1667 16.5,60.5C 15.5489,59.0813 15.2155,57.4147 15.5,55.5C 17.1667,55.5 18.8333,55.5 20.5,55.5C 20.5,49.1667 20.5,42.8333 20.5,36.5C 18.8333,36.5 17.1667,36.5 15.5,36.5C 15.2322,34.901 15.5655,33.5676 16.5,32.5 Z"/></g>
<g><path style="opacity:0.949" fill="#ff7fe2" d="M 169.5,40.5 C 170.5,41.1667 171.5,41.8333 172.5,42.5C 171.962,44.1172 171.629,45.7839 171.5,47.5C 171.44,48.0431 171.107,48.3764 170.5,48.5C 169.358,47.1738 168.024,46.1738 166.5,45.5C 166.273,43.0672 167.273,41.4006 169.5,40.5 Z"/></g>
<g><path style="opacity:0.861" fill="#fefbfd" d="M 331.5,41.5 C 331.5,43.8333 331.5,46.1667 331.5,48.5C 330.938,56.3183 334.605,59.3183 342.5,57.5C 342.833,57.5 343.167,57.5 343.5,57.5C 342.91,59.0972 341.91,60.4305 340.5,61.5C 336.555,62.4909 332.555,62.8242 328.5,62.5C 326.424,59.3664 324.757,56.0331 323.5,52.5C 323.5,49.1667 323.5,45.8333 323.5,42.5C 326.127,41.9084 328.794,41.5751 331.5,41.5 Z"/></g>
<g><path style="opacity:0.416" fill="#ffd5f6" d="M 42.5,38.5 C 44.5,38.5 46.5,38.5 48.5,38.5C 48.5,40.8333 48.5,43.1667 48.5,45.5C 46.5648,44.8505 44.5648,44.5172 42.5,44.5C 42.5,42.5 42.5,40.5 42.5,38.5 Z"/></g>
<g><path style="opacity:0.794" fill="#fff7fd" d="M 86.5,35.5 C 87.4959,35.4142 88.3292,35.7476 89,36.5C 89.3333,44.1667 89.6667,51.8333 90,59.5C 90.6924,60.0253 91.1924,60.6919 91.5,61.5C 89.2573,62.4742 86.924,62.8076 84.5,62.5C 85.4603,53.5233 86.127,44.5233 86.5,35.5 Z"/></g>
<g><path style="opacity:0.969" fill="#484747" d="M 253.5,42.5 C 251.833,44.5 250.167,46.5 248.5,48.5C 248.5,47.5 248.5,46.5 248.5,45.5C 250.078,43.3478 251.412,41.0145 252.5,38.5C 253.429,39.6888 253.762,41.0222 253.5,42.5 Z"/></g>
<g><path style="opacity:0.841" fill="#f8f7f8" d="M 42.5,44.5 C 44.5648,44.5172 46.5648,44.8505 48.5,45.5C 48.3354,48.5184 48.502,51.5184 49,54.5C 52.6883,55.7098 56.1883,57.0432 59.5,58.5C 59.2786,59.7348 58.6119,60.7348 57.5,61.5C 53.5546,62.4909 49.5546,62.8242 45.5,62.5C 45.2504,61.0779 44.417,60.0779 43,59.5C 42.5007,54.5111 42.3341,49.5111 42.5,44.5 Z"/></g>
<g><path style="opacity:0.864" fill="#fffdfe" d="M 180.5,45.5 C 183.559,48.9801 184.226,52.9801 182.5,57.5C 180.389,58.6046 179.055,60.2712 178.5,62.5C 174.833,62.5 171.167,62.5 167.5,62.5C 167.5,61.5 167.5,60.5 167.5,59.5C 171.603,60.2309 175.103,59.2309 178,56.5C 178.667,55.5 178.667,54.5 178,53.5C 176.955,52.6266 176.122,51.6266 175.5,50.5C 176.339,49.3588 177.006,48.0255 177.5,46.5C 178.325,45.6143 179.325,45.281 180.5,45.5 Z"/></g>
<g><path style="opacity:0.882" fill="#620a4f" d="M 76.5,44.5 C 76.1583,45.3382 75.4916,45.6716 74.5,45.5C 65.6788,45.3227 61.6788,49.656 62.5,58.5C 60.2851,53.046 61.6185,48.546 66.5,45C 69.8168,44.5017 73.1501,44.335 76.5,44.5 Z"/></g>
<g><path style="opacity:1" fill="#000000" d="M 81.5,48.5 C 82.341,52.5749 81.0076,55.5749 77.5,57.5C 75.9382,57.7329 74.6049,58.3995 73.5,59.5C 69.9443,57.9131 68.7777,55.2464 70,51.5C 71.129,49.8588 72.629,48.8588 74.5,48.5C 76.9103,47.5615 79.2436,47.5615 81.5,48.5 Z"/></g>
<g><path style="opacity:0.827" fill="#ffb7ef" d="M 100.5,40.5 C 103.167,41.1667 105.833,41.8333 108.5,42.5C 108.5,44.5 108.5,46.5 108.5,48.5C 105.833,48.1667 103.167,47.8333 100.5,47.5C 100.5,45.1667 100.5,42.8333 100.5,40.5 Z"/></g>
<g><path style="opacity:0.872" fill="#fffafe" d="M 131.5,45.5 C 131.5,51.1667 131.5,56.8333 131.5,62.5C 128.204,62.3045 125.871,60.6378 124.5,57.5C 125.427,55.5095 125.594,53.5095 125,51.5C 127.037,49.2941 129.203,47.2941 131.5,45.5 Z"/></g>
<g><path style="opacity:1" fill="#000000" d="M 140.5,57.5 C 138.801,57.5271 137.467,58.1938 136.5,59.5C 131.263,55.7755 131.263,52.1089 136.5,48.5C 139.106,47.8641 141.606,47.8641 144,48.5C 145.336,52.562 144.169,55.562 140.5,57.5 Z"/></g>
<g><path style="opacity:1" fill="#f6d5ef" d="M 172.5,42.5 C 175.21,43.5058 177.876,44.5058 180.5,45.5C 179.325,45.281 178.325,45.6143 177.5,46.5C 177.006,48.0255 176.339,49.3588 175.5,50.5C 174.167,49.5 172.833,48.5 171.5,47.5C 171.629,45.7839 171.962,44.1172 172.5,42.5 Z"/></g>
<g><path style="opacity:0.91" fill="#764e6d" d="M 267.5,43.5 C 267.88,45.698 267.213,47.3646 265.5,48.5C 265.12,46.302 265.787,44.6354 267.5,43.5 Z"/></g>
<g><path style="opacity:0.886" fill="#ffbdf0" d="M 267.5,42.5 C 269.167,42.5 270.833,42.5 272.5,42.5C 272.833,42.5 273.167,42.5 273.5,42.5C 273.5,42.8333 273.5,43.1667 273.5,43.5C 271.652,45.7331 269.985,48.0664 268.5,50.5C 267.5,50.5 266.5,50.5 265.5,50.5C 265.5,49.8333 265.5,49.1667 265.5,48.5C 267.213,47.3646 267.88,45.698 267.5,43.5C 267.5,43.1667 267.5,42.8333 267.5,42.5 Z"/></g>
<g><path style="opacity:0.961" fill="#5c4a58" d="M 273.5,43.5 C 273.408,47.6841 271.741,51.0174 268.5,53.5C 268.5,52.5 268.5,51.5 268.5,50.5C 269.985,48.0664 271.652,45.7331 273.5,43.5 Z"/></g>
<g><path style="opacity:0.787" fill="#ffcaf3" d="M 245.5,45.5 C 246.5,45.5 247.5,45.5 248.5,45.5C 248.5,46.5 248.5,47.5 248.5,48.5C 248.218,49.7777 247.551,50.7777 246.5,51.5C 245.5,51.5 244.5,51.5 243.5,51.5C 243.5,51.1667 243.5,50.8333 243.5,50.5C 244.167,48.8333 244.833,47.1667 245.5,45.5 Z"/></g>
<g><path style="opacity:0.838" fill="#febff0" d="M 233.5,47.5 C 235.5,47.5 237.5,47.5 239.5,47.5C 240.167,49.5 240.833,51.5 241.5,53.5C 239.833,53.5 238.167,53.5 236.5,53.5C 235.5,52.8333 234.5,52.1667 233.5,51.5C 233.5,50.1667 233.5,48.8333 233.5,47.5 Z"/></g>
<g><path style="opacity:0.976" fill="#4c3146" d="M 239.5,47.5 C 240.5,47.5 241.5,47.5 242.5,47.5C 242.263,48.791 242.596,49.791 243.5,50.5C 243.5,50.8333 243.5,51.1667 243.5,51.5C 243.719,52.675 243.386,53.675 242.5,54.5C 241.893,54.3764 241.56,54.0431 241.5,53.5C 240.833,51.5 240.167,49.5 239.5,47.5 Z"/></g>
<g><path style="opacity:0.848" fill="#ffacec" d="M 260.5,45.5 C 260.025,48.3126 261.025,50.3126 263.5,51.5C 262.365,53.2132 260.698,53.8799 258.5,53.5C 257.609,52.8902 256.609,52.5569 255.5,52.5C 255.5,50.5 255.5,48.5 255.5,46.5C 257.117,45.962 258.784,45.6287 260.5,45.5 Z"/></g>
<g><path style="opacity:0.891" fill="#f977db" d="M 21.5,44.5 C 23.5138,44.3915 25.1805,45.0582 26.5,46.5C 26.3354,49.5184 26.502,52.5184 27,55.5C 29.3237,56.9037 30.8237,58.9037 31.5,61.5C 30.2921,62.2341 28.9587,62.5674 27.5,62.5C 25.8679,59.8666 23.8679,57.5333 21.5,55.5C 21.5,51.8333 21.5,48.1667 21.5,44.5 Z"/></g>
<g><path style="opacity:0.94" fill="#f9e0f4" d="M 217.5,32.5 C 218.167,32.8333 218.833,33.1667 219.5,33.5C 220.965,36.9952 221.965,40.6619 222.5,44.5C 221.012,48.6822 220.012,53.0156 219.5,57.5C 218.5,58.1667 217.5,58.8333 216.5,59.5C 216.173,50.3178 216.507,41.3178 217.5,32.5 Z"/></g>
<g><path style="opacity:0.943" fill="#ffbcf0" d="M 350.5,31.5 C 350.5,35.5 350.5,39.5 350.5,43.5C 348.999,48.4889 346.999,53.1556 344.5,57.5C 344.167,57.5 343.833,57.5 343.5,57.5C 343.167,57.5 342.833,57.5 342.5,57.5C 343.5,54.1667 344.5,50.8333 345.5,47.5C 345.5,45.1667 345.5,42.8333 345.5,40.5C 345.5,39.8333 345.5,39.1667 345.5,38.5C 346.628,35.788 348.294,33.4547 350.5,31.5 Z"/></g>
<g><path style="opacity:0.984" fill="#ff92e7" d="M 350.5,43.5 C 350.5,45.8333 350.5,48.1667 350.5,50.5C 350.5,52.5 350.5,54.5 350.5,56.5C 348.72,57.9899 348.054,59.9899 348.5,62.5C 347.5,62.5 346.5,62.5 345.5,62.5C 345.634,60.7085 345.301,59.0418 344.5,57.5C 346.999,53.1556 348.999,48.4889 350.5,43.5 Z"/></g>
<g><path style="opacity:0.937" fill="#700c5a" d="M 285.5,58.5 C 284.078,54.5359 281.411,53.5359 277.5,55.5C 277.468,50.7871 279.801,49.2871 284.5,51C 286.646,53.3569 286.979,55.8569 285.5,58.5 Z"/></g>
<g><path style="opacity:0.98" fill="#716d70" d="M 345.5,47.5 C 344.5,50.8333 343.5,54.1667 342.5,57.5C 334.605,59.3183 330.938,56.3183 331.5,48.5C 333.104,49.287 333.771,50.6203 333.5,52.5C 336.518,52.6646 339.518,52.498 342.5,52C 343.053,50.1222 344.053,48.6222 345.5,47.5 Z"/></g>
<g><path style="opacity:0.915" fill="#ff2fd0" d="M 74.5,45.5 C 74.5,46.5 74.5,47.5 74.5,48.5C 72.629,48.8588 71.129,49.8588 70,51.5C 68.7777,55.2464 69.9443,57.9131 73.5,59.5C 73.5,60.5 73.5,61.5 73.5,62.5C 69.2473,63.1925 65.5807,62.1925 62.5,59.5C 62.5,59.1667 62.5,58.8333 62.5,58.5C 61.6788,49.656 65.6788,45.3227 74.5,45.5 Z"/></g>
<g><path style="opacity:0.976" fill="#774b6d" d="M 255.5,52.5 C 256.609,52.5569 257.609,52.8902 258.5,53.5C 258.768,55.099 258.434,56.4324 257.5,57.5C 256.032,56.2209 255.365,54.5542 255.5,52.5 Z"/></g>
<g><path style="opacity:1" fill="#ff7ee1" d="M 298.5,28.5 C 298.833,28.5 299.167,28.5 299.5,28.5C 299.634,39.8405 299.967,51.1739 300.5,62.5C 299.833,62.5 299.167,62.5 298.5,62.5C 298.5,51.1667 298.5,39.8333 298.5,28.5 Z"/></g>
<g><path style="opacity:0.847" fill="#fffefe" d="M 100.5,54.5 C 103.355,55.1168 106.022,56.1168 108.5,57.5C 108.5,58.8333 109.167,59.5 110.5,59.5C 110.5,60.5 110.5,61.5 110.5,62.5C 105.833,62.5 101.167,62.5 96.5,62.5C 95.4019,61.603 95.4019,60.7697 96.5,60C 97.7932,59.51 99.1266,59.3433 100.5,59.5C 100.5,57.8333 100.5,56.1667 100.5,54.5 Z"/></g>
<g><path style="opacity:0.831" fill="#ffe5f9" d="M 100.5,47.5 C 103.167,47.8333 105.833,48.1667 108.5,48.5C 108.5,51.5 108.5,54.5 108.5,57.5C 106.022,56.1168 103.355,55.1168 100.5,54.5C 100.5,52.1667 100.5,49.8333 100.5,47.5 Z"/></g>
<g><path style="opacity:0.714" fill="#ffdbf7" d="M 131.5,45.5 C 133.167,45.5 134.833,45.5 136.5,45.5C 136.5,46.5 136.5,47.5 136.5,48.5C 131.263,52.1089 131.263,55.7755 136.5,59.5C 136.5,60.5 136.5,61.5 136.5,62.5C 134.833,62.5 133.167,62.5 131.5,62.5C 131.5,56.8333 131.5,51.1667 131.5,45.5 Z"/></g>
<g><path style="opacity:0.888" fill="#ff22cb" d="M 285.5,58.5 C 285.5,59.5 285.5,60.5 285.5,61.5C 284.833,61.5 284.5,61.8333 284.5,62.5C 282.167,62.5 279.833,62.5 277.5,62.5C 277.5,60.8333 277.5,59.1667 277.5,57.5C 277.5,56.8333 277.5,56.1667 277.5,55.5C 281.411,53.5359 284.078,54.5359 285.5,58.5 Z"/></g>
<g><path style="opacity:0.943" fill="#f767d7" d="M 265.5,50.5 C 266.5,50.5 267.5,50.5 268.5,50.5C 268.5,51.5 268.5,52.5 268.5,53.5C 268.5,54.5 268.5,55.5 268.5,56.5C 266.025,57.6874 265.025,59.6874 265.5,62.5C 264.127,62.6567 262.793,62.49 261.5,62C 260.295,60.6244 258.962,59.4577 257.5,58.5C 257.5,58.1667 257.5,57.8333 257.5,57.5C 258.434,56.4324 258.768,55.099 258.5,53.5C 260.698,53.8799 262.365,53.2132 263.5,51.5C 264.492,51.6716 265.158,51.3382 265.5,50.5 Z"/></g>
<g><path style="opacity:0.953" fill="#ff42d4" d="M 297.5,28.5 C 297.833,28.5 298.167,28.5 298.5,28.5C 298.5,39.8333 298.5,51.1667 298.5,62.5C 296.05,62.702 293.717,62.3686 291.5,61.5C 291.5,61.1667 291.5,60.8333 291.5,60.5C 294.73,59.2719 296.396,56.9386 296.5,53.5C 296.5,48.5 296.5,43.5 296.5,38.5C 297.269,34.2754 295.602,31.6087 291.5,30.5C 291.5,30.1667 291.5,29.8333 291.5,29.5C 293.379,28.6586 295.379,28.3253 297.5,28.5 Z"/></g>
<g><path style="opacity:0.932" fill="#ff80e2" d="M 243.5,51.5 C 244.5,51.5 245.5,51.5 246.5,51.5C 245.975,55.3334 244.975,59 243.5,62.5C 237.864,62.1878 235.531,59.1878 236.5,53.5C 238.167,53.5 239.833,53.5 241.5,53.5C 241.56,54.0431 241.893,54.3764 242.5,54.5C 243.386,53.675 243.719,52.675 243.5,51.5 Z"/></g>
<g><path style="opacity:0.834" fill="#ffabec" d="M 140.5,57.5 C 140.5,58.5 140.5,59.5 140.5,60.5C 139.713,62.1042 138.38,62.7709 136.5,62.5C 136.5,61.5 136.5,60.5 136.5,59.5C 137.467,58.1938 138.801,57.5271 140.5,57.5 Z"/></g>
<g><path style="opacity:0.976" fill="#5f184f" d="M 350.5,50.5 C 355.022,52.2355 356.688,55.5689 355.5,60.5C 353.52,59.5161 351.853,58.1827 350.5,56.5C 350.5,54.5 350.5,52.5 350.5,50.5 Z"/></g>
<g><path style="opacity:0.927" fill="#862070" d="M 21.5,56.5 C 20.9517,59.0838 19.285,60.0838 16.5,59.5C 17.6053,57.7769 19.2719,56.7769 21.5,56.5 Z"/></g>
<g><path style="opacity:0.99" fill="#ff85e4" d="M 77.5,57.5 C 77.5,58.5 77.5,59.5 77.5,60.5C 77.1667,61.1667 76.8333,61.8333 76.5,62.5C 75.5,62.5 74.5,62.5 73.5,62.5C 73.5,61.5 73.5,60.5 73.5,59.5C 74.6049,58.3995 75.9382,57.7329 77.5,57.5 Z"/></g>
<g><path style="opacity:0.906" fill="#ff57d9" d="M 163.5,56.5 C 162.096,58.2546 161.096,60.2546 160.5,62.5C 158.787,61.3646 158.12,59.698 158.5,57.5C 159.877,54.2742 161.543,53.9409 163.5,56.5 Z"/></g>
<g><path style="opacity:0.937" fill="#682b5a" d="M 268.5,56.5 C 268.245,58.9674 267.245,60.9674 265.5,62.5C 265.025,59.6874 266.025,57.6874 268.5,56.5 Z"/></g>
<g><path style="opacity:0.911" fill="#ff58d9" d="M 350.5,56.5 C 351.853,58.1827 353.52,59.5161 355.5,60.5C 355.167,61.1667 354.833,61.8333 354.5,62.5C 352.5,62.5 350.5,62.5 348.5,62.5C 348.054,59.9899 348.72,57.9899 350.5,56.5 Z"/></g>
<g><path style="opacity:1" fill="#ffa5ea" d="M 212.5,56.5 C 212.5,58.5 212.5,60.5 212.5,62.5C 209.833,62.5 207.167,62.5 204.5,62.5C 204.5,61.5 204.5,60.5 204.5,59.5C 207.788,59.9844 210.455,58.9844 212.5,56.5 Z"/></g>
<g><path style="opacity:0.949" fill="#49053a" d="M 296.5,53.5 C 296.396,56.9386 294.73,59.2719 291.5,60.5C 290.492,56.1829 292.159,53.8495 296.5,53.5 Z"/></g>
<g><path style="opacity:0.941" fill="#ff49d7" d="M 21.5,55.5 C 23.8679,57.5333 25.8679,59.8666 27.5,62.5C 23.8333,62.5 20.1667,62.5 16.5,62.5C 16.5,61.8333 16.5,61.1667 16.5,60.5C 16.5,60.1667 16.5,59.8333 16.5,59.5C 19.285,60.0838 20.9517,59.0838 21.5,56.5C 21.5,56.1667 21.5,55.8333 21.5,55.5 Z"/></g>
<g><path style="opacity:0.841" fill="#ff97e7" d="M 163.5,56.5 C 164.833,57.5 166.167,58.5 167.5,59.5C 167.5,60.5 167.5,61.5 167.5,62.5C 165.167,62.5 162.833,62.5 160.5,62.5C 161.096,60.2546 162.096,58.2546 163.5,56.5 Z"/></g>
<g><path style="opacity:0.945" fill="#6a315d" d="M 233.5,51.5 C 234.5,52.1667 235.5,52.8333 236.5,53.5C 235.531,59.1878 237.864,62.1878 243.5,62.5C 243.5,63.5 243.5,64.5 243.5,65.5C 240.348,66.0414 237.848,65.0414 236,62.5C 235.761,58.6131 234.928,54.9464 233.5,51.5 Z"/></g>
<g><path style="opacity:0.878" fill="#fff2fc" d="M 302.5,59.5 C 303.833,59.5 305.167,59.5 306.5,59.5C 306.5,60.5 306.5,61.5 306.5,62.5C 305.167,62.5 303.833,62.5 302.5,62.5C 302.5,61.5 302.5,60.5 302.5,59.5 Z"/></g>
<g><path style="opacity:0.906" fill="#741e60" d="M 62.5,59.5 C 65.5807,62.1925 69.2473,63.1925 73.5,62.5C 74.5,62.5 75.5,62.5 76.5,62.5C 73.0381,63.4816 69.3714,63.815 65.5,63.5C 63.7376,62.7377 62.7376,61.4044 62.5,59.5 Z"/></g>
<g><path style="opacity:0.958" fill="#4d4d4d" d="M 110.5,59.5 C 111.434,60.5676 111.768,61.901 111.5,63.5C 106.305,63.8205 101.305,63.4872 96.5,62.5C 101.167,62.5 105.833,62.5 110.5,62.5C 110.5,61.5 110.5,60.5 110.5,59.5 Z"/></g>
<g><path style="opacity:0.94" fill="#6f5c6a" d="M 158.5,57.5 C 158.12,59.698 158.787,61.3646 160.5,62.5C 162.833,62.5 165.167,62.5 167.5,62.5C 171.167,62.5 174.833,62.5 178.5,62.5C 172.013,63.654 165.346,63.8206 158.5,63C 157.193,61.0565 157.193,59.2232 158.5,57.5 Z"/></g>
<g><path style="opacity:0.947" fill="#6b235b" d="M 31.5,61.5 C 31.5,62.8333 31.5,64.1667 31.5,65.5C 26.5,65.5 21.5,65.5 16.5,65.5C 16.5,64.5 16.5,63.5 16.5,62.5C 20.1667,62.5 23.8333,62.5 27.5,62.5C 28.9587,62.5674 30.2921,62.2341 31.5,61.5 Z"/></g>
<g><path style="opacity:0.946" fill="#5f5f5f" d="M 59.5,58.5 C 60.8174,60.2869 60.484,61.9536 58.5,63.5C 56.3333,63.8333 54.1667,64.1667 52,64.5C 49.3897,64.4668 47.223,63.8001 45.5,62.5C 49.5546,62.8242 53.5546,62.4909 57.5,61.5C 58.6119,60.7348 59.2786,59.7348 59.5,58.5 Z"/></g>
<g><path style="opacity:0.982" fill="#401e38" d="M 81.5,61.5 C 78.5818,63.3394 75.2484,64.3394 71.5,64.5C 69.3035,64.4954 67.3035,64.162 65.5,63.5C 69.3714,63.815 73.0381,63.4816 76.5,62.5C 76.8333,61.8333 77.1667,61.1667 77.5,60.5C 79.3747,58.9219 80.7081,59.2552 81.5,61.5 Z"/></g>
<g><path style="opacity:0.949" fill="#623056" d="M 190.5,47.5 C 190.264,50.8294 191.097,53.8294 193,56.5C 194.039,57.7101 195.206,58.7101 196.5,59.5C 198.391,62.1717 201.058,63.1717 204.5,62.5C 207.167,62.5 209.833,62.5 212.5,62.5C 214.404,62.2624 215.738,61.2624 216.5,59.5C 217.5,58.8333 218.5,58.1667 219.5,57.5C 218.457,60.0562 216.79,62.2228 214.5,64C 201.221,68.4798 192.888,64.1465 189.5,51C 189.514,49.6153 189.848,48.4486 190.5,47.5 Z"/></g>
<g><path style="opacity:0.98" fill="#6e1f5c" d="M 257.5,58.5 C 258.962,59.4577 260.295,60.6244 261.5,62C 262.793,62.49 264.127,62.6567 265.5,62.5C 265.586,63.4959 265.252,64.3292 264.5,65C 259.165,66.1667 256.831,64.0001 257.5,58.5 Z"/></g>
<g><path style="opacity:0.971" fill="#807c7f" d="M 343.5,57.5 C 343.833,57.5 344.167,57.5 344.5,57.5C 345.301,59.0418 345.634,60.7085 345.5,62.5C 343.804,60.871 342.804,61.2043 342.5,63.5C 342.167,64.5 341.5,65.1667 340.5,65.5C 336.5,65.5 332.5,65.5 328.5,65.5C 328.5,64.5 328.5,63.5 328.5,62.5C 332.555,62.8242 336.555,62.4909 340.5,61.5C 341.91,60.4305 342.91,59.0972 343.5,57.5 Z"/></g>
<g><path style="opacity:0.97" fill="#470a39" d="M 277.5,57.5 C 277.5,59.1667 277.5,60.8333 277.5,62.5C 278.152,63.7251 279.319,64.3917 281,64.5C 282.681,64.3917 283.848,63.7251 284.5,62.5C 284.5,61.8333 284.833,61.5 285.5,61.5C 285.822,63.7224 285.155,65.5557 283.5,67C 281.19,67.4966 278.857,67.6633 276.5,67.5C 276.187,63.9581 276.521,60.6248 277.5,57.5 Z"/></g>
<g><path style="opacity:0.969" fill="#8e1372" d="M 277.5,62.5 C 279.833,62.5 282.167,62.5 284.5,62.5C 283.848,63.7251 282.681,64.3917 281,64.5C 279.319,64.3917 278.152,63.7251 277.5,62.5 Z"/></g>
<g><path style="opacity:0.973" fill="#661e55" d="M 291.5,61.5 C 293.717,62.3686 296.05,62.702 298.5,62.5C 299.167,62.5 299.833,62.5 300.5,62.5C 300.833,62.5 301.167,62.5 301.5,62.5C 301.635,64.5542 300.968,66.2209 299.5,67.5C 296.833,67.5 294.167,67.5 291.5,67.5C 291.5,65.5 291.5,63.5 291.5,61.5 Z"/></g>
<g><path style="opacity:0.961" fill="#5b555a" d="M 301.5,62.5 C 301.833,62.5 302.167,62.5 302.5,62.5C 303.833,62.5 305.167,62.5 306.5,62.5C 306.5,64.1667 306.5,65.8333 306.5,67.5C 304.167,67.5 301.833,67.5 299.5,67.5C 300.968,66.2209 301.635,64.5542 301.5,62.5 Z"/></g>
<g><path style="opacity:0.976" fill="#585858" d="M 323.5,52.5 C 324.757,56.0331 326.424,59.3664 328.5,62.5C 328.5,63.5 328.5,64.5 328.5,65.5C 332.5,65.5 336.5,65.5 340.5,65.5C 340.5,66.5 340.5,67.5 340.5,68.5C 336.167,68.5 331.833,68.5 327.5,68.5C 327.539,66.6412 326.706,65.3079 325,64.5C 324.172,60.534 323.672,56.534 323.5,52.5 Z"/></g>
<g><path style="opacity:0.98" fill="#59224d" d="M 345.5,62.5 C 346.5,62.5 347.5,62.5 348.5,62.5C 350.5,62.5 352.5,62.5 354.5,62.5C 354.5,64.8333 354.5,67.1667 354.5,69.5C 351.167,69.5 347.833,69.5 344.5,69.5C 344.975,66.9179 344.308,64.9179 342.5,63.5C 342.804,61.2043 343.804,60.871 345.5,62.5 Z"/></g>
</svg>
